<svg id="Calque_1" data-name="Calque 1" xmlns="http://www.w3.org/2000/svg" viewBox="0 0 18.8 12.07"><defs><style>.cls-1{fill:#fff;}</style></defs><path class="cls-1" d="M4.82,6.54H9.27c2.69,0,4.46,1.43,4.46,3.78v0c0,2.57-2.14,3.89-4.68,3.89H6.16v4.2H4.82ZM9.1,13c2,0,3.27-1,3.27-2.62v0c0-1.7-1.28-2.59-3.2-2.59h-3V13Z" transform="translate(-4.82 -6.37)"/><path class="cls-1" d="M15.31,17.41l4.32-3.81c1.82-1.63,2.48-2.55,2.48-3.74a2.28,2.28,0,0,0-2.4-2.28c-1.36,0-2.24.71-3.19,2l-1-.71c1.07-1.6,2.19-2.54,4.28-2.54A3.42,3.42,0,0,1,23.5,9.74v0c0,1.74-.92,2.81-3,4.63l-3.17,2.82h6.3v1.22H15.31Z" transform="translate(-4.82 -6.37)"/></svg>